<svg width="1039" height="1004" viewBox="0 0 1039 1004" fill="none" xmlns="http://www.w3.org/2000/svg">
<rect width="1039" height="1004" fill="#122F38"/>
<path d="M770 425.5V520.5H599.5V566H792V661H464.5V285H784.5V380H599.5V425.5H770Z" fill="#BB844E"/>
<path d="M559 285H303V665H559V285Z" fill="#BB844E"/>
<path d="M351.5 382V568H363.5C384 568 400.5 559 412 541C423.5 523 429.5 499 429.5 470C429.5 440 422.5 418 408 404C393.5 389 379 382 363.5 382H351.5ZM393.5 663H216.5V287H393.5C448 287 491 306 522.5 343C554 381 570 426 570 478C570 531 553.5 574.5 521 610C488.5 645.5 446 663 393.5 663Z" fill="#122F38"/>
<path d="M792 661H559V665H792V661Z" fill="#BB844E"/>
</svg>
