<svg width="625" height="540" viewBox="0 0 625 540" fill="none" xmlns="http://www.w3.org/2000/svg">
<path d="M581 193.5V288.5H410.5V334H603V429H275.5V53H595.5V148H410.5V193.5H581Z" fill="#0EA2F6"/>
<rect x="114" y="53" width="256" height="380" fill="#0EA2F6"/>
<path d="M162.5 150V336H174.5C195 336 211.5 327 223 309C234.5 291 240.5 267 240.5 238C240.5 208 233.5 186 219 172C204.5 157 190 150 174.5 150H162.5ZM204.5 431H27.5V55H204.5C259 55 302 74 333.5 111C365 149 381 194 381 246C381 299 364.5 342.5 332 378C299.5 413.5 257 431 204.5 431Z" fill="#F4FCFE"/>
<rect x="370" y="429" width="233" height="4" fill="#0EA2F6"/>
</svg>
